<svg height="100" viewBox="-200 -200 400 400" width="100" xmlns="http://www.w3.org/2000/svg"><g transform="translate(120.0,69.28203230275508)"><polygon fill="#E2F0CB" points="72.0,0.0 36.0,62.35382907247958 -36.0,62.35382907247958 -72.0,0.0 -36.0,-62.35382907247958 36.0,-62.35382907247958"></polygon></g><g transform="translate(120.0,-69.28203230275508)"><polygon fill="#B5EAD7" points="72.0,0.0 36.0,62.35382907247958 -36.0,62.35382907247958 -72.0,0.0 -36.0,-62.35382907247958 36.0,-62.35382907247958"></polygon></g><g transform="translate(0.0,-138.56406460551017)"><polygon fill="#C7CEEA" points="72.0,0.0 36.0,62.35382907247958 -36.0,62.35382907247958 -72.0,0.0 -36.0,-62.35382907247958 36.0,-62.35382907247958"></polygon></g><g transform="translate(-120.0,-69.28203230275508)"><polygon fill="#FF9AA2" points="72.0,0.0 36.0,62.35382907247958 -36.0,62.35382907247958 -72.0,0.0 -36.0,-62.35382907247958 36.0,-62.35382907247958"></polygon></g><g transform="translate(-120.0,69.28203230275508)"><polygon fill="#FFB7B2" points="72.0,0.0 36.0,62.35382907247958 -36.0,62.35382907247958 -72.0,0.0 -36.0,-62.35382907247958 36.0,-62.35382907247958"></polygon></g><g transform="translate(0.0,138.56406460551017)"><polygon fill="#FFDAC1" points="72.0,0.0 36.0,62.35382907247958 -36.0,62.35382907247958 -72.0,0.0 -36.0,-62.35382907247958 36.0,-62.35382907247958"></polygon></g></svg>